ISO-10303-21;
HEADER;

/* File generated by Shapr3D Version 26.70.0.10837 */

FILE_DESCRIPTION(('HOOPS Exchange Step'),'2;1');

FILE_NAME('/private/var/mobile/Containers/Data/Application/5086ECE8-738E-4626-AE0C-B9F4285F951D/tmp/export/temp_export',
'2026-05-08T15:48:38+08:00',
('mobile'),
('Shapr3D Limited'),
'HOOPS Exchange 2025.9',
'Shapr3D',
'Authorized');

FILE_SCHEMA( ('AP242_MANAGED_MODEL_BASED_3D_ENGINEERING_MIM_LF {1 0 10303 442 1 1 4}') );

ENDSEC;

DATA;
#3=(NAMED_UNIT(*)PLANE_ANGLE_UNIT()SI_UNIT($,.RADIAN.));
#4=PLANE_ANGLE_MEASURE_WITH_UNIT(PLANE_ANGLE_MEASURE(0.0174532925),#3);
#5=(CONVERSION_BASED_UNIT('DEGREE',#4)NAMED_UNIT(#6)PLANE_ANGLE_UNIT());
#6=DIMENSIONAL_EXPONENTS(0.,0.,0.,0.,0.,0.,0.);
#7=(NAMED_UNIT(*)SI_UNIT($,.STERADIAN.)SOLID_ANGLE_UNIT());
#8=(LENGTH_UNIT()NAMED_UNIT(*)SI_UNIT(.MILLI.,.METRE.));
#9=UNCERTAINTY_MEASURE_WITH_UNIT(LENGTH_MEASURE(1.000000E-05),#8,'DISTANCE_ACCURACY_VALUE','Maximum Tolerance applied to model');
#10=(GEOMETRIC_REPRESENTATION_CONTEXT(3)GLOBAL_UNCERTAINTY_ASSIGNED_CONTEXT((#9))GLOBAL_UNIT_ASSIGNED_CONTEXT((#8,#5,#7))REPRESENTATION_CONTEXT('','root'));
#12=CARTESIAN_POINT('',(0.,0.,0.));
#13=DIRECTION('',(0.,0.,1.));
#14=DIRECTION('',(1.,0.,0.));
#15=AXIS2_PLACEMENT_3D('',#12,#13,#14);
#27=CARTESIAN_POINT('',(0.,0.,20.));
#28=DIRECTION('',(0.,0.,1.));
#29=DIRECTION('',(1.,0.,0.));
#30=AXIS2_PLACEMENT_3D('',#27,#28,#29);
#31=PLANE('',#30);
#32=CARTESIAN_POINT('',(17.1,15.,20.));
#33=VERTEX_POINT('',#32);
#34=CARTESIAN_POINT('',(15.,15.,20.));
#35=DIRECTION('',(0.,0.,1.));
#36=DIRECTION('',(1.,0.,-0.));
#37=AXIS2_PLACEMENT_3D('',#34,#35,#36);
#38=CIRCLE('',#37,2.1);
#39=EDGE_CURVE('',#33,#33,#38,.T.);
#40=ORIENTED_EDGE('',*,*,#39,.F.);
#41=EDGE_LOOP('',(#40));
#42=FACE_BOUND('',#41,.T.);
#43=CARTESIAN_POINT('',(87.1,15.,20.));
#44=VERTEX_POINT('',#43);
#45=CARTESIAN_POINT('',(85.,15.,20.));
#46=DIRECTION('',(0.,0.,1.));
#47=DIRECTION('',(1.,0.,-0.));
#48=AXIS2_PLACEMENT_3D('',#45,#46,#47);
#49=CIRCLE('',#48,2.1);
#50=EDGE_CURVE('',#44,#44,#49,.T.);
#51=ORIENTED_EDGE('',*,*,#50,.F.);
#52=EDGE_LOOP('',(#51));
#53=FACE_BOUND('',#52,.T.);
#54=CARTESIAN_POINT('',(87.1,85.,20.));
#55=VERTEX_POINT('',#54);
#56=CARTESIAN_POINT('',(85.,85.,20.));
#57=DIRECTION('',(0.,0.,1.));
#58=DIRECTION('',(1.,0.,-0.));
#59=AXIS2_PLACEMENT_3D('',#56,#57,#58);
#60=CIRCLE('',#59,2.1);
#61=EDGE_CURVE('',#55,#55,#60,.T.);
#62=ORIENTED_EDGE('',*,*,#61,.F.);
#63=EDGE_LOOP('',(#62));
#64=FACE_BOUND('',#63,.T.);
#65=CARTESIAN_POINT('',(17.1,85.,20.));
#66=VERTEX_POINT('',#65);
#67=CARTESIAN_POINT('',(15.,85.,20.));
#68=DIRECTION('',(0.,0.,1.));
#69=DIRECTION('',(1.,0.,-0.));
#70=AXIS2_PLACEMENT_3D('',#67,#68,#69);
#71=CIRCLE('',#70,2.1);
#72=EDGE_CURVE('',#66,#66,#71,.T.);
#73=ORIENTED_EDGE('',*,*,#72,.F.);
#74=EDGE_LOOP('',(#73));
#75=FACE_BOUND('',#74,.T.);
#76=CARTESIAN_POINT('',(100.,100.,20.));
#77=VERTEX_POINT('',#76);
#78=CARTESIAN_POINT('',(100.,0.,20.));
#79=VERTEX_POINT('',#78);
#80=CARTESIAN_POINT('',(100.,100.,20.));
#81=DIRECTION('',(0.,-1.,0.));
#82=VECTOR('',#81,100.);
#83=LINE('',#80,#82);
#84=EDGE_CURVE('',#77,#79,#83,.T.);
#85=ORIENTED_EDGE('',*,*,#84,.F.);
#86=CARTESIAN_POINT('',(0.,100.,20.));
#87=VERTEX_POINT('',#86);
#88=CARTESIAN_POINT('',(0.,100.,20.));
#89=DIRECTION('',(1.,0.,-0.));
#90=VECTOR('',#89,100.);
#91=LINE('',#88,#90);
#92=EDGE_CURVE('',#87,#77,#91,.T.);
#93=ORIENTED_EDGE('',*,*,#92,.F.);
#94=CARTESIAN_POINT('',(0.,0.,20.));
#95=VERTEX_POINT('',#94);
#96=CARTESIAN_POINT('',(0.,0.,20.));
#97=DIRECTION('',(0.,1.,0.));
#98=VECTOR('',#97,100.);
#99=LINE('',#96,#98);
#100=EDGE_CURVE('',#95,#87,#99,.T.);
#101=ORIENTED_EDGE('',*,*,#100,.F.);
#102=CARTESIAN_POINT('',(100.,0.,20.));
#103=DIRECTION('',(-1.,0.,0.));
#104=VECTOR('',#103,100.);
#105=LINE('',#102,#104);
#106=EDGE_CURVE('',#79,#95,#105,.T.);
#107=ORIENTED_EDGE('',*,*,#106,.F.);
#108=EDGE_LOOP('',(#85,#93,#101,#107));
#109=FACE_BOUND('',#108,.T.);
#110=CARTESIAN_POINT('',(20.,80.,20.));
#111=VERTEX_POINT('',#110);
#112=CARTESIAN_POINT('',(80.,80.,20.));
#113=VERTEX_POINT('',#112);
#114=CARTESIAN_POINT('',(20.,80.,20.));
#115=DIRECTION('',(1.,0.,-0.));
#116=VECTOR('',#115,60.);
#117=LINE('',#114,#116);
#118=EDGE_CURVE('',#111,#113,#117,.T.);
#119=ORIENTED_EDGE('',*,*,#118,.T.);
#120=CARTESIAN_POINT('',(80.,20.,20.));
#121=VERTEX_POINT('',#120);
#122=CARTESIAN_POINT('',(80.,80.,20.));
#123=DIRECTION('',(0.,-1.,0.));
#124=VECTOR('',#123,60.);
#125=LINE('',#122,#124);
#126=EDGE_CURVE('',#113,#121,#125,.T.);
#127=ORIENTED_EDGE('',*,*,#126,.T.);
#128=CARTESIAN_POINT('',(20.,20.,20.));
#129=VERTEX_POINT('',#128);
#130=CARTESIAN_POINT('',(20.,20.,20.));
#131=DIRECTION('',(1.,0.,-0.));
#132=VECTOR('',#131,60.);
#133=LINE('',#130,#132);
#134=EDGE_CURVE('',#129,#121,#133,.T.);
#135=ORIENTED_EDGE('',*,*,#134,.F.);
#136=CARTESIAN_POINT('',(20.,80.,20.));
#137=DIRECTION('',(0.,-1.,0.));
#138=VECTOR('',#137,60.);
#139=LINE('',#136,#138);
#140=EDGE_CURVE('',#111,#129,#139,.T.);
#141=ORIENTED_EDGE('',*,*,#140,.F.);
#142=EDGE_LOOP('',(#119,#127,#135,#141));
#143=FACE_BOUND('',#142,.T.);
#144=ADVANCED_FACE('',(#42,#53,#64,#75,#109,#143),#31,.T.);
#145=CARTESIAN_POINT('',(75.,25.,5.));
#146=DIRECTION('',(0.,0.,-1.));
#147=DIRECTION('',(-1.,0.,0.));
#148=AXIS2_PLACEMENT_3D('',#145,#146,#147);
#149=CYLINDRICAL_SURFACE('',#148,2.);
#150=CARTESIAN_POINT('',(73.,25.,0.));
#151=VERTEX_POINT('',#150);
#152=CARTESIAN_POINT('',(73.,25.,8.));
#153=VERTEX_POINT('',#152);
#154=CARTESIAN_POINT('',(73.,25.,0.));
#155=DIRECTION('',(-0.,-0.,1.));
#156=VECTOR('',#155,8.);
#157=LINE('',#154,#156);
#158=EDGE_CURVE('',#151,#153,#157,.T.);
#159=ORIENTED_EDGE('',*,*,#158,.F.);
#160=CARTESIAN_POINT('',(75.,25.,0.));
#161=DIRECTION('',(0.,0.,-1.));
#162=DIRECTION('',(-1.,0.,0.));
#163=AXIS2_PLACEMENT_3D('',#160,#161,#162);
#164=CIRCLE('',#163,2.);
#165=EDGE_CURVE('',#151,#151,#164,.T.);
#166=ORIENTED_EDGE('',*,*,#165,.T.);
#167=ORIENTED_EDGE('',*,*,#158,.T.);
#168=CARTESIAN_POINT('',(77.,25.,8.));
#169=VERTEX_POINT('',#168);
#170=CARTESIAN_POINT('',(75.,25.,8.));
#171=DIRECTION('',(-0.,-0.,-1.));
#172=DIRECTION('',(1.,0.,-0.));
#173=AXIS2_PLACEMENT_3D('',#170,#171,#172);
#174=CIRCLE('',#173,2.);
#175=EDGE_CURVE('',#169,#153,#174,.T.);
#176=ORIENTED_EDGE('',*,*,#175,.F.);
#177=CARTESIAN_POINT('',(75.,25.,8.));
#178=DIRECTION('',(-0.,-0.,-1.));
#179=DIRECTION('',(1.,0.,-0.));
#180=AXIS2_PLACEMENT_3D('',#177,#178,#179);
#181=CIRCLE('',#180,2.);
#182=EDGE_CURVE('',#153,#169,#181,.T.);
#183=ORIENTED_EDGE('',*,*,#182,.F.);
#184=EDGE_LOOP('',(#159,#166,#167,#176,#183));
#185=FACE_BOUND('',#184,.T.);
#186=ADVANCED_FACE('',(#185),#149,.F.);
#187=CARTESIAN_POINT('',(25.,25.,5.));
#188=DIRECTION('',(0.,0.,-1.));
#189=DIRECTION('',(-1.,0.,0.));
#190=AXIS2_PLACEMENT_3D('',#187,#188,#189);
#191=CYLINDRICAL_SURFACE('',#190,2.);
#192=CARTESIAN_POINT('',(23.,25.,0.));
#193=VERTEX_POINT('',#192);
#194=CARTESIAN_POINT('',(23.,25.,8.));
#195=VERTEX_POINT('',#194);
#196=CARTESIAN_POINT('',(23.,25.,0.));
#197=DIRECTION('',(-0.,-0.,1.));
#198=VECTOR('',#197,8.);
#199=LINE('',#196,#198);
#200=EDGE_CURVE('',#193,#195,#199,.T.);
#201=ORIENTED_EDGE('',*,*,#200,.F.);
#202=CARTESIAN_POINT('',(25.,25.,0.));
#203=DIRECTION('',(0.,0.,-1.));
#204=DIRECTION('',(-1.,0.,0.));
#205=AXIS2_PLACEMENT_3D('',#202,#203,#204);
#206=CIRCLE('',#205,2.);
#207=EDGE_CURVE('',#193,#193,#206,.T.);
#208=ORIENTED_EDGE('',*,*,#207,.T.);
#209=ORIENTED_EDGE('',*,*,#200,.T.);
#210=CARTESIAN_POINT('',(27.,25.,8.));
#211=VERTEX_POINT('',#210);
#212=CARTESIAN_POINT('',(25.,25.,8.));
#213=DIRECTION('',(-0.,-0.,-1.));
#214=DIRECTION('',(1.,0.,-0.));
#215=AXIS2_PLACEMENT_3D('',#212,#213,#214);
#216=CIRCLE('',#215,2.);
#217=EDGE_CURVE('',#211,#195,#216,.T.);
#218=ORIENTED_EDGE('',*,*,#217,.F.);
#219=CARTESIAN_POINT('',(25.,25.,8.));
#220=DIRECTION('',(-0.,-0.,-1.));
#221=DIRECTION('',(1.,0.,-0.));
#222=AXIS2_PLACEMENT_3D('',#219,#220,#221);
#223=CIRCLE('',#222,2.);
#224=EDGE_CURVE('',#195,#211,#223,.T.);
#225=ORIENTED_EDGE('',*,*,#224,.F.);
#226=EDGE_LOOP('',(#201,#208,#209,#218,#225));
#227=FACE_BOUND('',#226,.T.);
#228=ADVANCED_FACE('',(#227),#191,.F.);
#229=CARTESIAN_POINT('',(75.,75.,5.));
#230=DIRECTION('',(0.,0.,-1.));
#231=DIRECTION('',(-1.,0.,0.));
#232=AXIS2_PLACEMENT_3D('',#229,#230,#231);
#233=CYLINDRICAL_SURFACE('',#232,2.);
#234=CARTESIAN_POINT('',(73.,75.,0.));
#235=VERTEX_POINT('',#234);
#236=CARTESIAN_POINT('',(73.,75.,8.));
#237=VERTEX_POINT('',#236);
#238=CARTESIAN_POINT('',(73.,75.,0.));
#239=DIRECTION('',(-0.,-0.,1.));
#240=VECTOR('',#239,8.);
#241=LINE('',#238,#240);
#242=EDGE_CURVE('',#235,#237,#241,.T.);
#243=ORIENTED_EDGE('',*,*,#242,.F.);
#244=CARTESIAN_POINT('',(75.,75.,0.));
#245=DIRECTION('',(0.,0.,-1.));
#246=DIRECTION('',(-1.,0.,0.));
#247=AXIS2_PLACEMENT_3D('',#244,#245,#246);
#248=CIRCLE('',#247,2.);
#249=EDGE_CURVE('',#235,#235,#248,.T.);
#250=ORIENTED_EDGE('',*,*,#249,.T.);
#251=ORIENTED_EDGE('',*,*,#242,.T.);
#252=CARTESIAN_POINT('',(77.,75.,8.));
#253=VERTEX_POINT('',#252);
#254=CARTESIAN_POINT('',(75.,75.,8.));
#255=DIRECTION('',(-0.,-0.,-1.));
#256=DIRECTION('',(1.,0.,-0.));
#257=AXIS2_PLACEMENT_3D('',#254,#255,#256);
#258=CIRCLE('',#257,2.);
#259=EDGE_CURVE('',#253,#237,#258,.T.);
#260=ORIENTED_EDGE('',*,*,#259,.F.);
#261=CARTESIAN_POINT('',(75.,75.,8.));
#262=DIRECTION('',(-0.,-0.,-1.));
#263=DIRECTION('',(1.,0.,-0.));
#264=AXIS2_PLACEMENT_3D('',#261,#262,#263);
#265=CIRCLE('',#264,2.);
#266=EDGE_CURVE('',#237,#253,#265,.T.);
#267=ORIENTED_EDGE('',*,*,#266,.F.);
#268=EDGE_LOOP('',(#243,#250,#251,#260,#267));
#269=FACE_BOUND('',#268,.T.);
#270=ADVANCED_FACE('',(#269),#233,.F.);
#271=CARTESIAN_POINT('',(25.,75.,5.));
#272=DIRECTION('',(0.,0.,-1.));
#273=DIRECTION('',(-1.,0.,0.));
#274=AXIS2_PLACEMENT_3D('',#271,#272,#273);
#275=CYLINDRICAL_SURFACE('',#274,2.);
#276=CARTESIAN_POINT('',(23.,75.,0.));
#277=VERTEX_POINT('',#276);
#278=CARTESIAN_POINT('',(23.,75.,8.));
#279=VERTEX_POINT('',#278);
#280=CARTESIAN_POINT('',(23.,75.,0.));
#281=DIRECTION('',(-0.,-0.,1.));
#282=VECTOR('',#281,8.);
#283=LINE('',#280,#282);
#284=EDGE_CURVE('',#277,#279,#283,.T.);
#285=ORIENTED_EDGE('',*,*,#284,.F.);
#286=CARTESIAN_POINT('',(25.,75.,0.));
#287=DIRECTION('',(0.,0.,-1.));
#288=DIRECTION('',(-1.,0.,0.));
#289=AXIS2_PLACEMENT_3D('',#286,#287,#288);
#290=CIRCLE('',#289,2.);
#291=EDGE_CURVE('',#277,#277,#290,.T.);
#292=ORIENTED_EDGE('',*,*,#291,.T.);
#293=ORIENTED_EDGE('',*,*,#284,.T.);
#294=CARTESIAN_POINT('',(27.,75.,8.));
#295=VERTEX_POINT('',#294);
#296=CARTESIAN_POINT('',(25.,75.,8.));
#297=DIRECTION('',(-0.,-0.,-1.));
#298=DIRECTION('',(1.,0.,-0.));
#299=AXIS2_PLACEMENT_3D('',#296,#297,#298);
#300=CIRCLE('',#299,2.);
#301=EDGE_CURVE('',#295,#279,#300,.T.);
#302=ORIENTED_EDGE('',*,*,#301,.F.);
#303=CARTESIAN_POINT('',(25.,75.,8.));
#304=DIRECTION('',(-0.,-0.,-1.));
#305=DIRECTION('',(1.,0.,-0.));
#306=AXIS2_PLACEMENT_3D('',#303,#304,#305);
#307=CIRCLE('',#306,2.);
#308=EDGE_CURVE('',#279,#295,#307,.T.);
#309=ORIENTED_EDGE('',*,*,#308,.F.);
#310=EDGE_LOOP('',(#285,#292,#293,#302,#309));
#311=FACE_BOUND('',#310,.T.);
#312=ADVANCED_FACE('',(#311),#275,.F.);
#313=CARTESIAN_POINT('',(100.,50.,20.));
#314=DIRECTION('',(1.,0.,0.));
#315=DIRECTION('',(0.,0.,-1.));
#316=AXIS2_PLACEMENT_3D('',#313,#314,#315);
#317=PLANE('',#316);
#318=CARTESIAN_POINT('',(100.,100.,0.));
#319=VERTEX_POINT('',#318);
#320=CARTESIAN_POINT('',(100.,0.,0.));
#321=VERTEX_POINT('',#320);
#322=CARTESIAN_POINT('',(100.,100.,0.));
#323=DIRECTION('',(0.,-1.,0.));
#324=VECTOR('',#323,100.);
#325=LINE('',#322,#324);
#326=EDGE_CURVE('',#319,#321,#325,.T.);
#327=ORIENTED_EDGE('',*,*,#326,.F.);
#328=CARTESIAN_POINT('',(100.,100.,20.));
#329=DIRECTION('',(0.,0.,-1.));
#330=VECTOR('',#329,20.);
#331=LINE('',#328,#330);
#332=EDGE_CURVE('',#77,#319,#331,.T.);
#333=ORIENTED_EDGE('',*,*,#332,.F.);
#334=ORIENTED_EDGE('',*,*,#84,.T.);
#335=CARTESIAN_POINT('',(100.,0.,20.));
#336=DIRECTION('',(0.,0.,-1.));
#337=VECTOR('',#336,20.);
#338=LINE('',#335,#337);
#339=EDGE_CURVE('',#79,#321,#338,.T.);
#340=ORIENTED_EDGE('',*,*,#339,.T.);
#341=EDGE_LOOP('',(#327,#333,#334,#340));
#342=FACE_BOUND('',#341,.T.);
#343=ADVANCED_FACE('',(#342),#317,.T.);
#344=CARTESIAN_POINT('',(50.,100.,20.));
#345=DIRECTION('',(0.,1.,0.));
#346=DIRECTION('',(0.,0.,1.));
#347=AXIS2_PLACEMENT_3D('',#344,#345,#346);
#348=PLANE('',#347);
#349=CARTESIAN_POINT('',(0.,100.,0.));
#350=VERTEX_POINT('',#349);
#351=CARTESIAN_POINT('',(0.,100.,0.));
#352=DIRECTION('',(1.,0.,-0.));
#353=VECTOR('',#352,100.);
#354=LINE('',#351,#353);
#355=EDGE_CURVE('',#350,#319,#354,.T.);
#356=ORIENTED_EDGE('',*,*,#355,.F.);
#357=CARTESIAN_POINT('',(0.,100.,20.));
#358=DIRECTION('',(0.,0.,-1.));
#359=VECTOR('',#358,20.);
#360=LINE('',#357,#359);
#361=EDGE_CURVE('',#87,#350,#360,.T.);
#362=ORIENTED_EDGE('',*,*,#361,.F.);
#363=ORIENTED_EDGE('',*,*,#92,.T.);
#364=ORIENTED_EDGE('',*,*,#332,.T.);
#365=EDGE_LOOP('',(#356,#362,#363,#364));
#366=FACE_BOUND('',#365,.T.);
#367=ADVANCED_FACE('',(#366),#348,.T.);
#368=CARTESIAN_POINT('',(0.,50.,20.));
#369=DIRECTION('',(-1.,0.,0.));
#370=DIRECTION('',(0.,0.,1.));
#371=AXIS2_PLACEMENT_3D('',#368,#369,#370);
#372=PLANE('',#371);
#373=CARTESIAN_POINT('',(0.,0.,0.));
#374=VERTEX_POINT('',#373);
#375=CARTESIAN_POINT('',(0.,0.,0.));
#376=DIRECTION('',(0.,1.,0.));
#377=VECTOR('',#376,100.);
#378=LINE('',#375,#377);
#379=EDGE_CURVE('',#374,#350,#378,.T.);
#380=ORIENTED_EDGE('',*,*,#379,.F.);
#381=CARTESIAN_POINT('',(0.,0.,20.));
#382=DIRECTION('',(0.,0.,-1.));
#383=VECTOR('',#382,20.);
#384=LINE('',#381,#383);
#385=EDGE_CURVE('',#95,#374,#384,.T.);
#386=ORIENTED_EDGE('',*,*,#385,.F.);
#387=ORIENTED_EDGE('',*,*,#100,.T.);
#388=ORIENTED_EDGE('',*,*,#361,.T.);
#389=EDGE_LOOP('',(#380,#386,#387,#388));
#390=FACE_BOUND('',#389,.T.);
#391=ADVANCED_FACE('',(#390),#372,.T.);
#392=CARTESIAN_POINT('',(50.,0.,20.));
#393=DIRECTION('',(0.,-1.,0.));
#394=DIRECTION('',(0.,0.,-1.));
#395=AXIS2_PLACEMENT_3D('',#392,#393,#394);
#396=PLANE('',#395);
#397=CARTESIAN_POINT('',(100.,0.,0.));
#398=DIRECTION('',(-1.,0.,0.));
#399=VECTOR('',#398,100.);
#400=LINE('',#397,#399);
#401=EDGE_CURVE('',#321,#374,#400,.T.);
#402=ORIENTED_EDGE('',*,*,#401,.F.);
#403=ORIENTED_EDGE('',*,*,#339,.F.);
#404=ORIENTED_EDGE('',*,*,#106,.T.);
#405=ORIENTED_EDGE('',*,*,#385,.T.);
#406=EDGE_LOOP('',(#402,#403,#404,#405));
#407=FACE_BOUND('',#406,.T.);
#408=ADVANCED_FACE('',(#407),#396,.T.);
#409=CARTESIAN_POINT('',(0.,0.,0.));
#410=DIRECTION('',(0.,0.,1.));
#411=DIRECTION('',(1.,0.,0.));
#412=AXIS2_PLACEMENT_3D('',#409,#410,#411);
#413=PLANE('',#412);
#414=ORIENTED_EDGE('',*,*,#291,.F.);
#415=EDGE_LOOP('',(#414));
#416=FACE_BOUND('',#415,.T.);
#417=ORIENTED_EDGE('',*,*,#249,.F.);
#418=EDGE_LOOP('',(#417));
#419=FACE_BOUND('',#418,.T.);
#420=ORIENTED_EDGE('',*,*,#207,.F.);
#421=EDGE_LOOP('',(#420));
#422=FACE_BOUND('',#421,.T.);
#423=ORIENTED_EDGE('',*,*,#165,.F.);
#424=EDGE_LOOP('',(#423));
#425=FACE_BOUND('',#424,.T.);
#426=ORIENTED_EDGE('',*,*,#326,.T.);
#427=ORIENTED_EDGE('',*,*,#401,.T.);
#428=ORIENTED_EDGE('',*,*,#379,.T.);
#429=ORIENTED_EDGE('',*,*,#355,.T.);
#430=EDGE_LOOP('',(#426,#427,#428,#429));
#431=FACE_BOUND('',#430,.T.);
#432=ADVANCED_FACE('',(#416,#419,#422,#425,#431),#413,.F.);
#433=CARTESIAN_POINT('',(80.,50.,12.));
#434=DIRECTION('',(-1.,0.,0.));
#435=DIRECTION('',(0.,0.,1.));
#436=AXIS2_PLACEMENT_3D('',#433,#434,#435);
#437=PLANE('',#436);
#438=ORIENTED_EDGE('',*,*,#126,.F.);
#439=CARTESIAN_POINT('',(80.,80.,8.));
#440=VERTEX_POINT('',#439);
#441=CARTESIAN_POINT('',(80.,80.,8.));
#442=DIRECTION('',(0.,0.,1.));
#443=VECTOR('',#442,12.);
#444=LINE('',#441,#443);
#445=EDGE_CURVE('',#440,#113,#444,.T.);
#446=ORIENTED_EDGE('',*,*,#445,.F.);
#447=CARTESIAN_POINT('',(80.,20.,8.));
#448=VERTEX_POINT('',#447);
#449=CARTESIAN_POINT('',(80.,80.,8.));
#450=DIRECTION('',(0.,-1.,0.));
#451=VECTOR('',#450,60.);
#452=LINE('',#449,#451);
#453=EDGE_CURVE('',#440,#448,#452,.T.);
#454=ORIENTED_EDGE('',*,*,#453,.T.);
#455=CARTESIAN_POINT('',(80.,20.,8.));
#456=DIRECTION('',(0.,0.,1.));
#457=VECTOR('',#456,12.);
#458=LINE('',#455,#457);
#459=EDGE_CURVE('',#448,#121,#458,.T.);
#460=ORIENTED_EDGE('',*,*,#459,.T.);
#461=EDGE_LOOP('',(#438,#446,#454,#460));
#462=FACE_BOUND('',#461,.T.);
#463=ADVANCED_FACE('',(#462),#437,.T.);
#464=CARTESIAN_POINT('',(50.,80.,12.));
#465=DIRECTION('',(0.,-1.,0.));
#466=DIRECTION('',(0.,0.,-1.));
#467=AXIS2_PLACEMENT_3D('',#464,#465,#466);
#468=PLANE('',#467);
#469=ORIENTED_EDGE('',*,*,#118,.F.);
#470=CARTESIAN_POINT('',(20.,80.,8.));
#471=VERTEX_POINT('',#470);
#472=CARTESIAN_POINT('',(20.,80.,8.));
#473=DIRECTION('',(0.,0.,1.));
#474=VECTOR('',#473,12.);
#475=LINE('',#472,#474);
#476=EDGE_CURVE('',#471,#111,#475,.T.);
#477=ORIENTED_EDGE('',*,*,#476,.F.);
#478=CARTESIAN_POINT('',(20.,80.,8.));
#479=DIRECTION('',(1.,0.,-0.));
#480=VECTOR('',#479,60.);
#481=LINE('',#478,#480);
#482=EDGE_CURVE('',#471,#440,#481,.T.);
#483=ORIENTED_EDGE('',*,*,#482,.T.);
#484=ORIENTED_EDGE('',*,*,#445,.T.);
#485=EDGE_LOOP('',(#469,#477,#483,#484));
#486=FACE_BOUND('',#485,.T.);
#487=ADVANCED_FACE('',(#486),#468,.T.);
#488=CARTESIAN_POINT('',(20.,50.,12.));
#489=DIRECTION('',(-1.,0.,0.));
#490=DIRECTION('',(0.,0.,1.));
#491=AXIS2_PLACEMENT_3D('',#488,#489,#490);
#492=PLANE('',#491);
#493=ORIENTED_EDGE('',*,*,#140,.T.);
#494=CARTESIAN_POINT('',(20.,20.,8.));
#495=VERTEX_POINT('',#494);
#496=CARTESIAN_POINT('',(20.,20.,8.));
#497=DIRECTION('',(0.,0.,1.));
#498=VECTOR('',#497,12.);
#499=LINE('',#496,#498);
#500=EDGE_CURVE('',#495,#129,#499,.T.);
#501=ORIENTED_EDGE('',*,*,#500,.F.);
#502=CARTESIAN_POINT('',(20.,80.,8.));
#503=DIRECTION('',(0.,-1.,0.));
#504=VECTOR('',#503,60.);
#505=LINE('',#502,#504);
#506=EDGE_CURVE('',#471,#495,#505,.T.);
#507=ORIENTED_EDGE('',*,*,#506,.F.);
#508=ORIENTED_EDGE('',*,*,#476,.T.);
#509=EDGE_LOOP('',(#493,#501,#507,#508));
#510=FACE_BOUND('',#509,.T.);
#511=ADVANCED_FACE('',(#510),#492,.F.);
#512=CARTESIAN_POINT('',(50.,20.,12.));
#513=DIRECTION('',(0.,-1.,0.));
#514=DIRECTION('',(0.,0.,-1.));
#515=AXIS2_PLACEMENT_3D('',#512,#513,#514);
#516=PLANE('',#515);
#517=ORIENTED_EDGE('',*,*,#134,.T.);
#518=ORIENTED_EDGE('',*,*,#459,.F.);
#519=CARTESIAN_POINT('',(20.,20.,8.));
#520=DIRECTION('',(1.,0.,-0.));
#521=VECTOR('',#520,60.);
#522=LINE('',#519,#521);
#523=EDGE_CURVE('',#495,#448,#522,.T.);
#524=ORIENTED_EDGE('',*,*,#523,.F.);
#525=ORIENTED_EDGE('',*,*,#500,.T.);
#526=EDGE_LOOP('',(#517,#518,#524,#525));
#527=FACE_BOUND('',#526,.T.);
#528=ADVANCED_FACE('',(#527),#516,.F.);
#529=CARTESIAN_POINT('',(0.,0.,8.));
#530=DIRECTION('',(0.,0.,1.));
#531=DIRECTION('',(1.,0.,0.));
#532=AXIS2_PLACEMENT_3D('',#529,#530,#531);
#533=PLANE('',#532);
#534=ORIENTED_EDGE('',*,*,#175,.T.);
#535=ORIENTED_EDGE('',*,*,#182,.T.);
#536=EDGE_LOOP('',(#534,#535));
#537=FACE_BOUND('',#536,.T.);
#538=ORIENTED_EDGE('',*,*,#217,.T.);
#539=ORIENTED_EDGE('',*,*,#224,.T.);
#540=EDGE_LOOP('',(#538,#539));
#541=FACE_BOUND('',#540,.T.);
#542=ORIENTED_EDGE('',*,*,#453,.F.);
#543=ORIENTED_EDGE('',*,*,#482,.F.);
#544=ORIENTED_EDGE('',*,*,#506,.T.);
#545=ORIENTED_EDGE('',*,*,#523,.T.);
#546=EDGE_LOOP('',(#542,#543,#544,#545));
#547=FACE_BOUND('',#546,.T.);
#548=ORIENTED_EDGE('',*,*,#301,.T.);
#549=ORIENTED_EDGE('',*,*,#308,.T.);
#550=EDGE_LOOP('',(#548,#549));
#551=FACE_BOUND('',#550,.T.);
#552=ORIENTED_EDGE('',*,*,#259,.T.);
#553=ORIENTED_EDGE('',*,*,#266,.T.);
#554=EDGE_LOOP('',(#552,#553));
#555=FACE_BOUND('',#554,.T.);
#556=ADVANCED_FACE('',(#537,#541,#547,#551,#555),#533,.T.);
#557=CARTESIAN_POINT('',(15.,85.,10.));
#558=DIRECTION('',(0.,0.,1.));
#559=DIRECTION('',(1.,0.,-0.));
#560=AXIS2_PLACEMENT_3D('',#557,#558,#559);
#561=CYLINDRICAL_SURFACE('',#560,2.1);
#562=CARTESIAN_POINT('',(17.1,85.,10.));
#563=VERTEX_POINT('',#562);
#564=CARTESIAN_POINT('',(17.1,85.,20.));
#565=DIRECTION('',(-0.,-0.,-1.));
#566=VECTOR('',#565,10.);
#567=LINE('',#564,#566);
#568=EDGE_CURVE('',#66,#563,#567,.T.);
#569=ORIENTED_EDGE('',*,*,#568,.F.);
#570=ORIENTED_EDGE('',*,*,#72,.T.);
#571=ORIENTED_EDGE('',*,*,#568,.T.);
#572=CARTESIAN_POINT('',(15.,85.,10.));
#573=DIRECTION('',(0.,0.,1.));
#574=DIRECTION('',(1.,0.,-0.));
#575=AXIS2_PLACEMENT_3D('',#572,#573,#574);
#576=CIRCLE('',#575,2.1);
#577=EDGE_CURVE('',#563,#563,#576,.T.);
#578=ORIENTED_EDGE('',*,*,#577,.F.);
#579=EDGE_LOOP('',(#569,#570,#571,#578));
#580=FACE_BOUND('',#579,.T.);
#581=ADVANCED_FACE('',(#580),#561,.F.);
#582=CARTESIAN_POINT('',(0.,0.,10.));
#583=DIRECTION('',(0.,0.,1.));
#584=DIRECTION('',(1.,0.,0.));
#585=AXIS2_PLACEMENT_3D('',#582,#583,#584);
#586=PLANE('',#585);
#587=ORIENTED_EDGE('',*,*,#577,.T.);
#588=EDGE_LOOP('',(#587));
#589=FACE_BOUND('',#588,.T.);
#590=ADVANCED_FACE('',(#589),#586,.T.);
#591=CARTESIAN_POINT('',(85.,85.,10.));
#592=DIRECTION('',(0.,0.,1.));
#593=DIRECTION('',(1.,0.,-0.));
#594=AXIS2_PLACEMENT_3D('',#591,#592,#593);
#595=CYLINDRICAL_SURFACE('',#594,2.1);
#596=CARTESIAN_POINT('',(87.1,85.,10.));
#597=VERTEX_POINT('',#596);
#598=CARTESIAN_POINT('',(87.1,85.,20.));
#599=DIRECTION('',(-0.,-0.,-1.));
#600=VECTOR('',#599,10.);
#601=LINE('',#598,#600);
#602=EDGE_CURVE('',#55,#597,#601,.T.);
#603=ORIENTED_EDGE('',*,*,#602,.F.);
#604=ORIENTED_EDGE('',*,*,#61,.T.);
#605=ORIENTED_EDGE('',*,*,#602,.T.);
#606=CARTESIAN_POINT('',(85.,85.,10.));
#607=DIRECTION('',(0.,0.,1.));
#608=DIRECTION('',(1.,0.,-0.));
#609=AXIS2_PLACEMENT_3D('',#606,#607,#608);
#610=CIRCLE('',#609,2.1);
#611=EDGE_CURVE('',#597,#597,#610,.T.);
#612=ORIENTED_EDGE('',*,*,#611,.F.);
#613=EDGE_LOOP('',(#603,#604,#605,#612));
#614=FACE_BOUND('',#613,.T.);
#615=ADVANCED_FACE('',(#614),#595,.F.);
#616=CARTESIAN_POINT('',(0.,0.,10.));
#617=DIRECTION('',(0.,0.,1.));
#618=DIRECTION('',(1.,0.,0.));
#619=AXIS2_PLACEMENT_3D('',#616,#617,#618);
#620=PLANE('',#619);
#621=ORIENTED_EDGE('',*,*,#611,.T.);
#622=EDGE_LOOP('',(#621));
#623=FACE_BOUND('',#622,.T.);
#624=ADVANCED_FACE('',(#623),#620,.T.);
#625=CARTESIAN_POINT('',(85.,15.,10.));
#626=DIRECTION('',(0.,0.,1.));
#627=DIRECTION('',(1.,0.,-0.));
#628=AXIS2_PLACEMENT_3D('',#625,#626,#627);
#629=CYLINDRICAL_SURFACE('',#628,2.1);
#630=CARTESIAN_POINT('',(87.1,15.,10.));
#631=VERTEX_POINT('',#630);
#632=CARTESIAN_POINT('',(87.1,15.,20.));
#633=DIRECTION('',(-0.,-0.,-1.));
#634=VECTOR('',#633,10.);
#635=LINE('',#632,#634);
#636=EDGE_CURVE('',#44,#631,#635,.T.);
#637=ORIENTED_EDGE('',*,*,#636,.F.);
#638=ORIENTED_EDGE('',*,*,#50,.T.);
#639=ORIENTED_EDGE('',*,*,#636,.T.);
#640=CARTESIAN_POINT('',(85.,15.,10.));
#641=DIRECTION('',(0.,0.,1.));
#642=DIRECTION('',(1.,0.,-0.));
#643=AXIS2_PLACEMENT_3D('',#640,#641,#642);
#644=CIRCLE('',#643,2.1);
#645=EDGE_CURVE('',#631,#631,#644,.T.);
#646=ORIENTED_EDGE('',*,*,#645,.F.);
#647=EDGE_LOOP('',(#637,#638,#639,#646));
#648=FACE_BOUND('',#647,.T.);
#649=ADVANCED_FACE('',(#648),#629,.F.);
#650=CARTESIAN_POINT('',(0.,0.,10.));
#651=DIRECTION('',(0.,0.,1.));
#652=DIRECTION('',(1.,0.,0.));
#653=AXIS2_PLACEMENT_3D('',#650,#651,#652);
#654=PLANE('',#653);
#655=ORIENTED_EDGE('',*,*,#645,.T.);
#656=EDGE_LOOP('',(#655));
#657=FACE_BOUND('',#656,.T.);
#658=ADVANCED_FACE('',(#657),#654,.T.);
#659=CARTESIAN_POINT('',(15.,15.,10.));
#660=DIRECTION('',(0.,0.,1.));
#661=DIRECTION('',(1.,0.,-0.));
#662=AXIS2_PLACEMENT_3D('',#659,#660,#661);
#663=CYLINDRICAL_SURFACE('',#662,2.1);
#664=CARTESIAN_POINT('',(17.1,15.,10.));
#665=VERTEX_POINT('',#664);
#666=CARTESIAN_POINT('',(17.1,15.,20.));
#667=DIRECTION('',(-0.,-0.,-1.));
#668=VECTOR('',#667,10.);
#669=LINE('',#666,#668);
#670=EDGE_CURVE('',#33,#665,#669,.T.);
#671=ORIENTED_EDGE('',*,*,#670,.F.);
#672=ORIENTED_EDGE('',*,*,#39,.T.);
#673=ORIENTED_EDGE('',*,*,#670,.T.);
#674=CARTESIAN_POINT('',(15.,15.,10.));
#675=DIRECTION('',(0.,0.,1.));
#676=DIRECTION('',(1.,0.,-0.));
#677=AXIS2_PLACEMENT_3D('',#674,#675,#676);
#678=CIRCLE('',#677,2.1);
#679=EDGE_CURVE('',#665,#665,#678,.T.);
#680=ORIENTED_EDGE('',*,*,#679,.F.);
#681=EDGE_LOOP('',(#671,#672,#673,#680));
#682=FACE_BOUND('',#681,.T.);
#683=ADVANCED_FACE('',(#682),#663,.F.);
#684=CARTESIAN_POINT('',(0.,0.,10.));
#685=DIRECTION('',(0.,0.,1.));
#686=DIRECTION('',(1.,0.,0.));
#687=AXIS2_PLACEMENT_3D('',#684,#685,#686);
#688=PLANE('',#687);
#689=ORIENTED_EDGE('',*,*,#679,.T.);
#690=EDGE_LOOP('',(#689));
#691=FACE_BOUND('',#690,.T.);
#692=ADVANCED_FACE('',(#691),#688,.T.);
#693=CLOSED_SHELL('',(#144,#186,#228,#270,#312,#343,#367,#391,#408,#432,#463,#487,#511,#528,#556,#581,#590,#615,#624,#649,#658,#683,#692));
#694=MANIFOLD_SOLID_BREP('\X2\5B9E4F53\X0\  01',#693);
#695=COLOUR_RGB('',0.627451003,0.627451003,0.643137276);
#696=FILL_AREA_STYLE_COLOUR('',#695);
#697=FILL_AREA_STYLE('',(#696));
#698=SURFACE_STYLE_FILL_AREA(#697);
#699=SURFACE_SIDE_STYLE('',(#698));
#700=SURFACE_STYLE_USAGE(.BOTH.,#699);
#701=PRESENTATION_STYLE_ASSIGNMENT((#700));
#26=STYLED_ITEM('',(#701),#694);
#16=SHAPE_REPRESENTATION('root',(#15),#10);
#17=ADVANCED_BREP_SHAPE_REPRESENTATION('root',(#694),#10);
#709=SHAPE_REPRESENTATION_RELATIONSHIP('','',#16,#17);
#710=CARTESIAN_POINT('',(0.,0.,0.));
#711=DIRECTION('',(0.,0.,1.));
#712=DIRECTION('',(1.,0.,0.));
#713=AXIS2_PLACEMENT_3D('',#710,#711,#712);
#715=MAPPED_ITEM('',#714,#713);
#714=REPRESENTATION_MAP(#713,#16);
#716=APPLICATION_CONTEXT('Managed model based 3d engineering');
#717=APPLICATION_PROTOCOL_DEFINITION('international standard','ap242_managed_model_based_3d_engineering',2014,#716);
#718=PRODUCT_CONTEXT('',#716,'mechanical');
#719=PRODUCT_DEFINITION_CONTEXT('part definition',#716,'design');
#24=PRODUCT('root','root','',(#718));
#720=PRODUCT_RELATED_PRODUCT_CATEGORY('part','',(#24));
#721=PRODUCT_DEFINITION_FORMATION_WITH_SPECIFIED_SOURCE('','',#24,.NOT_KNOWN.);
#25=PRODUCT_DEFINITION('design','',#721,#719);
#23=PRODUCT_DEFINITION_SHAPE('','',#25);
#722=SHAPE_DEFINITION_REPRESENTATION(#23,#16);
#11=DRAUGHTING_MODEL('',(#715),#10);
#723=DESCRIPTIVE_REPRESENTATION_ITEM('KEY','/private/var/mobile/Containers/Data/Application/5086ECE8-738E-4626-AE0C-B9F4285F951D/tmp/2C3175DC-5632-4905-9ABE-5E1957A2D831.tmp');
#724=PROPERTY_DEFINITION('KEY','',#25);
#725=REPRESENTATION('',(#723),#10);
#726=PROPERTY_DEFINITION_REPRESENTATION(#724,#725);
#727=GENERAL_PROPERTY('','KEY','');
#728=GENERAL_PROPERTY_ASSOCIATION('','',#727,#724);
#1=MECHANICAL_DESIGN_GEOMETRIC_PRESENTATION_REPRESENTATION('',(#26),#10);
ENDSEC;
END-ISO-10303-21;
